<?xml version="1.0"?>
<svg xmlns="http://www.w3.org/2000/svg" xmlns:xlink="http://www.w3.org/1999/xlink" version="1.1" id="Layer_1" x="0px" y="0px" viewBox="0 0 512 512" style="enable-background:new 0 0 512 512;" xml:space="preserve" width="512px" height="512px" class=""><g><circle style="fill:#E60D98" cx="256" cy="256" r="256" data-original="#9EA7DB" class="" data-old_color="#9EA7DB"/><path style="fill:#A7267E" d="M503.433,321.813c-28.471,107.31-124.89,186.971-240.392,190.093L100.363,349.227L331.929,173.1  l77.267,77.267l11.407-11.384L503.433,321.813z" data-original="#8C95C9" class="active-path" data-old_color="#8C95C9"/><path style="fill:#F5F5F5;" d="M376.078,217.601c31.522,0,57.058,25.56,57.058,57.082c0,9.201-2.183,17.885-6.056,25.584  c10.14,6.243,16.923,17.416,16.923,30.113v0.023c0,19.411-15.89,35.324-35.324,35.324H149.511h-1.69c-1.127,0-2.23-0.07-3.333-0.164  c-42.694-2.605-76.493-38.023-76.493-81.375c0-45.018,36.498-81.515,81.515-81.515c9.858,0,19.317,1.737,28.048,4.952  c13.402-35.84,47.952-61.33,88.463-61.33c45.182,0,82.971,31.756,92.242,74.169C363.873,218.61,369.859,217.601,376.078,217.601z" data-original="#F5F5F5" class=""/><path style="fill:#EAEAED;" d="M443.488,324.325c0.352,1.972,0.516,3.99,0.516,6.056v0.023c0,19.411-15.89,35.324-35.324,35.324  H149.511h-1.69c-1.127,0-2.23-0.07-3.333-0.164c-42.694-2.605-76.493-38.023-76.493-81.375c0-2.019,0.07-4.037,0.211-6.032  c2.981,40.535,35.606,72.808,76.281,75.296c1.103,0.094,2.206,0.164,3.333,0.164h1.69H408.68  C426.049,353.617,440.601,340.919,443.488,324.325z" data-original="#EAEAED" class=""/><path style="fill:#D9D9DD;" d="M432.832,268.628c1.666,17.603-3.075,25.466-5.75,31.639c-1.174-0.962-2.418-1.831-3.732-2.652  C426.354,291.629,432.081,275.598,432.832,268.628z" data-original="#D9D9DD"/><path style="fill:#D6137D" d="M274.777,181.503v12.393h-37.554v-12.393H274.777z M274.777,202.627v36.427h18.777L256,313.551  l-37.554-74.497h18.777v-36.427H274.777z" data-original="#FF8C8A" class="" data-old_color="#FF8C8A"/></g> </svg>
