<?xml version="1.0"?>
<svg xmlns="http://www.w3.org/2000/svg" xmlns:xlink="http://www.w3.org/1999/xlink" version="1.1" id="Layer_1" x="0px" y="0px" viewBox="0 0 511.995 511.995" style="enable-background:new 0 0 511.995 511.995;" xml:space="preserve" width="512px" height="512px" class=""><g><g><g><g><circle style="fill:#E60D98" cx="255.997" cy="255.997" r="255.997" data-original="#E60D98" class="" data-old_color="#FFD630"/><path style="fill:#A7267E" d="M410.953,218.371L269.952,77.371l-18.18,38.474l1.902,97.242l-34.035,39.531l-65.321-59.614  l-62.361,62.362l244.162,244.161c92.38-30.23,161.506-111.617,173.978-210.762l-84.769-84.769l-14.586,14.586L410.953,218.371z" data-original="#A7267E" class="" data-old_color="#F5BE18"/><path style="fill:#FEFEFE;" d="M249.87,256.423l-2.748,8.878l-108.235-32.977l2.748-8.878L249.87,256.423z M247.967,119.862  l9.09-0.211l2.325,113.097l-9.09,0.211L247.967,119.862z M397.001,223.233l2.537,8.878l-139.099,31.075l-2.537-8.878  L397.001,223.233z M251.138,272.066l8.878-2.325l44.393,108.446l-8.878,2.325L251.138,272.066z" data-original="#FEFEFE" class=""/><circle style="fill:#C5C6C6" cx="253.676" cy="261.281" r="61.098" data-original="#C5C6C6" class="" data-old_color="#E84F4F"/><path style="fill:#9D9E9E" d="M253.675,200.191c33.823,0,61.094,27.482,61.094,61.094c0,33.823-27.482,61.305-61.094,61.305  L253.675,200.191L253.675,200.191z" data-original="#9D9E9E" class="active-path" data-old_color="#C94545"/><circle style="fill:#C5C6C6;" cx="307.579" cy="398.055" r="44.397" data-original="#C5C6C6" class=""/><path style="fill:#9D9E9E;" d="M307.58,353.665c24.522,0,44.393,19.871,44.393,44.393c0,24.522-19.871,44.393-44.393,44.393v-88.574  l0,0V353.665z" data-original="#9D9E9E" class="active-path"/><circle style="fill:#C5C6C6" cx="401.867" cy="227.25" r="33.19" data-original="#C5C6C6" class="" data-old_color="#00CC96"/><path style="fill:#9D9E9E" d="M401.863,194.061c18.391,0,33.189,14.798,33.189,33.189s-14.798,33.189-33.189,33.189V194.061  L401.863,194.061z" data-original="#9D9E9E" class="active-path" data-old_color="#12B589"/><circle style="fill:#C5C6C6" cx="120.704" cy="222.387" r="43.759" data-original="#C5C6C6" class="" data-old_color="#006775"/><path style="fill:#9D9E9E" d="M120.707,178.629c24.099,0,43.759,19.448,43.759,43.759c0,24.099-19.448,43.759-43.759,43.759V178.84  l0,0C120.707,178.84,120.707,178.629,120.707,178.629z" data-original="#9D9E9E" class="active-path" data-old_color="#004F59"/><circle style="fill:#C5C6C6" cx="251.565" cy="95.339" r="25.579" data-original="#C5C6C6" class="" data-old_color="#E84F4F"/><path style="fill:#9D9E9E" d="M251.561,69.761c14.164,0,25.579,11.415,25.579,25.579s-11.415,25.579-25.579,25.579v-51.37l0,0  L251.561,69.761L251.561,69.761z" data-original="#9D9E9E" class="active-path" data-old_color="#C94545"/></g></g></g></g> </svg>
