<?xml version="1.0"?>
<svg xmlns="http://www.w3.org/2000/svg" xmlns:xlink="http://www.w3.org/1999/xlink" version="1.1" id="Capa_1" x="0px" y="0px" viewBox="0 0 468.293 468.293" style="enable-background:new 0 0 468.293 468.293;" xml:space="preserve" width="512px" height="512px"><g><path style="fill:#D4D5DB;" d="M299.002,55.362H169.291c-12.728,0-23.085,10.357-23.085,23.085v53.313h175.88V78.447  C322.086,65.719,311.729,55.362,299.002,55.362z M302.299,111.973H165.993V78.447c0-1.816,1.481-3.298,3.298-3.298h129.711  c1.816,0,3.298,1.481,3.298,3.298V111.973z" data-original="#D4D5DB"/><path style="fill:#E0E5E8;" d="M449.561,412.931H18.732C8.386,412.931,0,404.544,0,394.199V130.478  c0-10.345,8.386-18.732,18.732-18.732h430.829c10.345,0,18.732,8.386,18.732,18.732v263.721  C468.293,404.544,459.906,412.931,449.561,412.931z" data-original="#E0E5E8" class=""/><path style="fill:#29A1DA;" d="M340.524,273.918l-40.687,23.185L167.35,372.589c-8.874,5.071-19.915-1.349-19.915-11.572V163.675  c0-5.152,2.821-9.364,6.788-11.572c3.845-2.208,8.751-2.535,13.127-0.041l132.406,75.485l0.123,0.082l40.646,23.144  C349.479,255.885,349.479,268.807,340.524,273.918z" data-original="#29A1DA"/><path style="fill:#4EBD9E;" d="M299.878,227.629l-35.493,34.717L154.223,152.103c3.845-2.208,8.751-2.535,13.127-0.041  L299.878,227.629z" data-original="#4EBD9E"/><path style="fill:#E56354;" d="M299.878,297.048l-35.493-34.717L154.223,372.574c3.845,2.208,8.751,2.535,13.127,0.041  L299.878,297.048z" data-original="#E56354"/><path style="fill:#FAD362" d="M340.524,273.918l-40.687,23.185l-35.452-34.758l35.371-34.799l0.123,0.082l40.646,23.144  C349.479,255.885,349.479,268.807,340.524,273.918z" data-original="#FAD362" class="active-path"/></g> </svg>
