<?xml version="1.0"?>
<svg xmlns="http://www.w3.org/2000/svg" xmlns:xlink="http://www.w3.org/1999/xlink" version="1.1" id="Layer_1" x="0px" y="0px" viewBox="0 0 512 512" style="enable-background:new 0 0 512 512;" xml:space="preserve" width="512px" height="512px" class=""><g><circle style="fill:#A7267E" cx="256" cy="250.474" r="250.474" data-original="#FF7069" class="" data-old_color="#FF7069"/><path style="fill:#596366" d="M20.145,133.705c18.184-3.209,36.189-3.209,54.373,0c7.844,1.426,14.618,6.596,14.618,14.618l0,0  c0,4.635-2.139,8.735-5.348,11.409c-1.426,1.07-3.031,1.604-4.813,1.248c-1.783-0.178-3.209-1.07-4.279-2.674  c-1.248-1.783-3.031-3.031-5.526-1.783c-12.836,6.418-17.292-3.565-23.175,0.535c-4.992,3.387-7.131,3.209-14.084,0.178  c-4.635-1.961-10.34,0.713-13.727,2.852c-2.318,1.426-5.17,1.248-7.309-0.535c-3.209-2.674-5.348-6.774-5.348-11.231l0,0  C5.526,140.301,12.123,135.131,20.145,133.705z" data-original="#596366" class="" data-old_color="#596366"/><path style="fill:#FFFFFF;" d="M462.618,392.379L462.618,392.379c0,4.635-2.139,8.735-6.596,9.627L206.084,446.93  c-7.666,1.426-12.301-6.418-9.627-11.944c-0.535-0.713-0.891-1.604-1.07-2.496l-69.526-275.788H84.68  c-4.279,0-7.666-3.387-7.666-7.666l0,0c0-4.279,3.387-7.666,7.666-7.666h47.777c1.426,0,2.674,0.357,3.744,1.07  c2.139,1.07,3.922,3.031,4.457,5.348l70.774,280.602c0,0.178,0.178,0.535,0.178,0.713l241.56-43.499  c4.457-0.891,9.627,2.139,9.627,6.596L462.618,392.379z" data-original="#FFFFFF" class=""/><g>
	<path style="fill:#6C7678;" d="M20.145,133.705c18.184-3.209,36.189-3.209,54.373,0c2.318,0.357,4.457,1.07,6.24,2.139   c-1.07,1.07-2.318,2.496-4.1,3.922c-14.618,12.657-67.922,0-67.922,0c2.674-3.031,6.774-5.17,11.409-5.883V133.705z" data-original="#6C7678" class=""/>
	<path style="fill:#6C7678;" d="M82.719,129.783L82.719,129.783c3.387,0,6.24,2.852,6.24,6.24v24.78c0,3.387-2.852,6.24-6.24,6.24   l0,0c-3.387,0-6.24-2.852-6.24-6.24v-24.78C76.479,132.635,79.331,129.783,82.719,129.783z" data-original="#6C7678" class=""/>
</g><polygon style="fill:#E3249E" points="120.156,71.487 238.708,43.32 270.797,164.189 152.067,193.783 " data-original="#FFE356" class="active-path" data-old_color="#FFE356"/><polygon style="fill:#E60D98" points="155.097,193.07 330.518,149.393 393.627,402.362 218.919,435.699 " data-original="#FCD34E" class="" data-old_color="#FCD34E"/><polygon style="fill:#A7267E" points="228.011,174.886 259.744,167.042 282.919,254.93 275.432,249.939 273.649,256.357   268.657,251.187 265.448,257.961 261.17,252.256 257.961,259.387 253.504,254.217 249.582,260.813 " data-original="#EEB731" class="" data-old_color="#EEB731"/><polygon style="fill:#FFFFFF;" points="262.774,349.415 356.189,332.123 370.808,392.022 277.393,409.493 " data-original="#FFFFFF" class=""/><path style="fill:#C6CBD6;" d="M268.301,352.446l1.604-0.357l11.053,49.56l-1.604,0.357L268.301,352.446z M324.992,354.407  l-0.891,0.178l8.379,37.616l0.891-0.178L324.992,354.407z M329.627,353.515l-3.744,0.713l8.379,37.616l3.744-0.713L329.627,353.515z   M332.479,352.98l-1.783,0.357l8.379,37.616l1.783-0.357L332.479,352.98z M336.223,352.267l-1.07,0.178l8.379,37.616l1.07-0.178  L336.223,352.267z M348.167,350.128l0.891-0.178l8.379,37.616l-0.891,0.178L348.167,350.128z M343.532,351.02l3.744-0.713  l8.379,37.616l-3.744,0.713L343.532,351.02z M340.68,351.554l1.783-0.357l8.379,37.616l-1.783,0.357L340.68,351.554z   M336.936,352.267l1.07-0.178l8.379,37.616l-1.07,0.178L336.936,352.267z M305.738,345.493l0.535-0.178l11.053,49.56l-0.535,0.178  L305.738,345.493z M310.908,344.602l4.813-0.891l11.053,49.56l-4.813,0.891L310.908,344.602z M308.769,344.958l1.248-0.178  l11.053,49.56l-1.248,0.178L308.769,344.958z M299.32,346.741l4.813-0.891l11.053,49.56l-4.813,0.891L299.32,346.741z   M297.538,347.097l1.07-0.178l11.053,49.56l-1.07,0.178L297.538,347.097z M295.042,347.632l1.248-0.178l11.053,49.56l-1.248,0.178  L295.042,347.632z M291.476,348.345l2.496-0.535l11.053,49.56l-2.496,0.535L291.476,348.345z M285.415,349.415l4.813-0.891  l11.053,49.56l-4.813,0.891L285.415,349.415z M282.563,349.95l1.07-0.178l11.053,49.56l-1.07,0.178L282.563,349.95z M277.214,351.02  l4.1-0.713l11.053,49.56l-4.1,0.713L277.214,351.02z M271.51,352.089l1.604-0.357l11.053,49.56l-1.604,0.357L271.51,352.089z" data-original="#C6CBD6" class=""/><path style="fill:#6C7678;" d="M248.156,127.465l-2.139,2.139l-2.852-3.209c-0.713-0.713-1.426-1.07-1.961-0.891  c-1.07,0.178-1.961,1.248-2.496,2.318c-0.178,0.357-0.357,0.891-0.535,1.248c0.178,0.178,0.357,0.535,0.713,0.891  c0.891,1.07,1.961,2.496,3.209,3.922l-2.139,2.139l3.031-1.07h0.178l0.357-0.178l2.674-0.891l0.713-2.674v-0.357l0.891-3.565  L248.156,127.465z M231.042,148.501c-1.07,0-2.139,0-2.852-0.535l4.457,5.17c0.357,0.178,0.535,0.178,0.713,0.178h0.178l7.487-1.426  l-0.713-4.992c-0.535,0.178-1.248,0.178-1.961,0.357l-4.813,0.891c-0.178,0-0.535,0.178-1.07,0.178l0,0h-0.178  c-0.357,0-0.891,0.178-1.426,0.178H231.042z M226.05,139.944l3.031,0.713l-1.426,4.1c-0.357,1.07-0.178,1.783,0.178,2.318  c0.713,0.891,2.139,1.07,3.387,1.07c0.535,0,0.891,0,1.248-0.178c0.178-0.357,0.178-0.713,0.357-1.07  c0.535-1.248,1.07-3.031,1.783-4.813l2.852,0.713l-2.496-2.139l-0.178-0.178l-0.357-0.357l-2.139-1.961l-2.674,0.713h-0.357  l-3.565,0.891L226.05,139.944z M252.078,144.936c0.535,0.891,1.07,1.783,1.07,2.674l2.139-6.596c0-0.357-0.178-0.535-0.178-0.535  l0,0l-4.992-5.883l-3.922,3.209c0.357,0.357,0.891,0.891,1.248,1.426l3.209,3.744c0.178,0.178,0.357,0.357,0.713,0.713l0,0  l0.178,0.178c0.178,0.357,0.535,0.713,0.713,1.07H252.078z M247.265,153.493l-0.891-3.031l4.279-0.891  c1.07-0.178,1.604-0.713,1.783-1.248c0.357-1.07-0.178-2.318-0.713-3.387c-0.178-0.357-0.535-0.713-0.713-1.07  c-0.357,0-0.713,0-1.07,0.178c-1.426,0.178-3.209,0.535-4.992,0.891l-0.891-2.852l-0.713,3.209v0.178v0.357l-0.535,2.852  l1.961,1.961l0.178,0.178l2.496,2.674H247.265z M238.351,127.465c0.535-0.891,1.07-1.783,1.783-2.318l-6.774,1.248  c-0.178,0.178-0.357,0.357-0.357,0.535v0.178l-2.496,7.309l4.635,1.783c0.178-0.535,0.357-1.07,0.713-1.783l1.604-4.635  c0-0.178,0.178-0.535,0.357-0.891l0,0v-0.178C237.994,128.357,238.173,128,238.351,127.465z" data-original="#6C7678" class=""/><circle style="fill:#596366" cx="205.37" cy="438.552" r="73.448" data-original="#596366" class="" data-old_color="#596366"/><circle style="fill:#ECF0F1;" cx="205.37" cy="438.552" r="45.103" data-original="#ECF0F1" class=""/><circle style="fill:#C6CBD6;" cx="205.37" cy="438.552" r="38.15" data-original="#C6CBD6" class=""/><circle style="fill:#ECF0F1;" cx="205.37" cy="438.552" r="17.114" data-original="#ECF0F1" class=""/><circle style="fill:#37414C" cx="204.479" cy="438.73" r="4.279" data-original="#37414C" class="" data-old_color="#37414C"/><polygon style="fill:#E60D98" points="115.343,63.822 239.242,34.407 244.947,58.652 121.047,88.067 " data-original="#FCD34E" class="" data-old_color="#FCD34E"/></g> </svg>
